<svg width="80" height="70" viewBox="0 0 80 70" fill="none" xmlns="http://www.w3.org/2000/svg">
<g id="Buttons/Simple/Red-Square/Locker-Locked-Hover">
<g id="@Fill/Simple/Red-Square-Hover">
<g id="Rectangle">
<g filter="url(#filter0_i_927_18655)">
<rect width="80" height="70" rx="7" fill="#FF8A8A"/>
</g>
<rect x="1.5" y="1.5" width="77" height="67" rx="5.5" stroke="#AE2E2E" stroke-width="3" stroke-linecap="round" stroke-linejoin="round"/>
</g>
<g id="Rectangle_2" filter="url(#filter1_i_927_18655)">
<rect x="9" y="9" width="62" height="52" fill="#FF8989"/>
</g>
<rect id="Rectangle_3" x="9" y="9" width="62" height="52" rx="2" stroke="#AE2E2E" stroke-width="3" stroke-linecap="round" stroke-linejoin="round"/>
</g>
<g id="Icon/Locker-Locked">
<g id="Group">
<g id="Vector" filter="url(#filter2_i_927_18655)">
<path fill-rule="evenodd" clip-rule="evenodd" d="M29.0712 27.7143C28.4006 27.7143 27.8569 28.2579 27.8569 28.9286V50.7857C27.8569 51.4563 28.4006 52 29.0712 52H50.9284C51.599 52 52.1426 51.4563 52.1426 50.7857V28.9286C52.1426 28.2579 51.599 27.7143 50.9284 27.7143H29.0712ZM38.1784 36.8214C37.5077 36.8214 36.9641 37.3651 36.9641 38.0357V41.6786C36.9641 42.3492 37.5077 42.8929 38.1784 42.8929H41.8212C42.4919 42.8929 43.0355 42.3492 43.0355 41.6786V38.0357C43.0355 37.3651 42.4919 36.8214 41.8212 36.8214H38.1784Z" fill="#AD2E2E"/>
<path fill-rule="evenodd" clip-rule="evenodd" d="M31.4998 27.7143H35.1426V21.6429H44.8569V27.7143H48.4998V19.2143C48.4998 18.5437 47.9561 18 47.2855 18H32.7141C32.0434 18 31.4998 18.5437 31.4998 19.2143V27.7143Z" fill="#AD2E2E"/>
</g>
</g>
</g>
</g>
<defs>
<filter id="filter0_i_927_18655" x="0" y="0" width="80" height="70" filterUnits="userSpaceOnUse" color-interpolation-filters="sRGB">
<feFlood flood-opacity="0" result="BackgroundImageFix"/>
<feBlend mode="normal" in="SourceGraphic" in2="BackgroundImageFix" result="shape"/>
<feColorMatrix in="SourceAlpha" type="matrix" values="0 0 0 0 0 0 0 0 0 0 0 0 0 0 0 0 0 0 127 0" result="hardAlpha"/>
<feMorphology radius="5" operator="erode" in="SourceAlpha" result="effect1_innerShadow_927_18655"/>
<feOffset/>
<feComposite in2="hardAlpha" operator="arithmetic" k2="-1" k3="1"/>
<feColorMatrix type="matrix" values="0 0 0 0 0.956863 0 0 0 0 0.45098 0 0 0 0 0.45098 0 0 0 1 0"/>
<feBlend mode="normal" in2="shape" result="effect1_innerShadow_927_18655"/>
</filter>
<filter id="filter1_i_927_18655" x="9" y="9" width="62" height="52" filterUnits="userSpaceOnUse" color-interpolation-filters="sRGB">
<feFlood flood-opacity="0" result="BackgroundImageFix"/>
<feBlend mode="normal" in="SourceGraphic" in2="BackgroundImageFix" result="shape"/>
<feColorMatrix in="SourceAlpha" type="matrix" values="0 0 0 0 0 0 0 0 0 0 0 0 0 0 0 0 0 0 127 0" result="hardAlpha"/>
<feMorphology radius="5" operator="erode" in="SourceAlpha" result="effect1_innerShadow_927_18655"/>
<feOffset/>
<feComposite in2="hardAlpha" operator="arithmetic" k2="-1" k3="1"/>
<feColorMatrix type="matrix" values="0 0 0 0 0.933333 0 0 0 0 0.431373 0 0 0 0 0.431373 0 0 0 1 0"/>
<feBlend mode="normal" in2="shape" result="effect1_innerShadow_927_18655"/>
</filter>
<filter id="filter2_i_927_18655" x="27.8569" y="18" width="24.2856" height="34" filterUnits="userSpaceOnUse" color-interpolation-filters="sRGB">
<feFlood flood-opacity="0" result="BackgroundImageFix"/>
<feBlend mode="normal" in="SourceGraphic" in2="BackgroundImageFix" result="shape"/>
<feColorMatrix in="SourceAlpha" type="matrix" values="0 0 0 0 0 0 0 0 0 0 0 0 0 0 0 0 0 0 127 0" result="hardAlpha"/>
<feOffset dy="-1.21429"/>
<feComposite in2="hardAlpha" operator="arithmetic" k2="-1" k3="1"/>
<feColorMatrix type="matrix" values="0 0 0 0 0 0 0 0 0 0 0 0 0 0 0 0 0 0 0.25 0"/>
<feBlend mode="normal" in2="shape" result="effect1_innerShadow_927_18655"/>
</filter>
</defs>
</svg>
