<svg width="34" height="34" viewBox="0 0 34 34" fill="none" xmlns="http://www.w3.org/2000/svg">
<g id="Icon/Gear">
<g id="Group">
<g id="Figure" filter="url(#filter0_i_927_7511)">
<path fill-rule="evenodd" clip-rule="evenodd" d="M14.5714 0C13.9008 0 13.3571 0.543654 13.3571 1.21429V5.41305C12.6006 5.65067 11.8759 5.96035 11.1912 6.33405L8.38843 3.53129C7.91422 3.05708 7.14538 3.05708 6.67117 3.53129L3.23665 6.9658C2.76244 7.44001 2.76244 8.20885 3.23665 8.68306L6.1318 11.5782C5.8474 12.1472 5.60638 12.7416 5.41305 13.3571H1.21429C0.543654 13.3571 0 13.9008 0 14.5714V19.4286C0 20.0992 0.543653 20.6429 1.21428 20.6429H5.41305C5.60638 21.2584 5.8474 21.8528 6.1318 22.4218L2.99257 25.561C2.51836 26.0352 2.51836 26.8041 2.99257 27.2783L6.42708 30.7128C6.90129 31.187 7.67014 31.187 8.14434 30.7128L11.1912 27.666C11.8759 28.0396 12.6006 28.3493 13.3571 28.587V32.7857C13.3571 33.4563 13.9008 34 14.5714 34H19.4286C20.0992 34 20.6429 33.4563 20.6429 32.7857V28.587C21.2584 28.3936 21.8528 28.1526 22.4218 27.8682L25.561 31.0074C26.0352 31.4816 26.8041 31.4816 27.2783 31.0074L30.7128 27.5729C31.187 27.0987 31.187 26.3299 30.7128 25.8557L27.666 22.8088C28.0396 22.1241 28.3493 21.3994 28.587 20.6429H32.7857C33.4563 20.6429 34 20.0992 34 19.4286V14.5714C34 13.9008 33.4563 13.3571 32.7857 13.3571H28.587C28.3493 12.6006 28.0396 11.8759 27.666 11.1912L30.4687 8.38843C30.9429 7.91422 30.9429 7.14537 30.4687 6.67117L27.0342 3.23665C26.56 2.76244 25.7911 2.76244 25.3169 3.23665L22.4218 6.13179C21.8528 5.8474 21.2584 5.60638 20.6429 5.41305V1.21429C20.6429 0.543654 20.0992 0 19.4286 0H14.5714ZM17 23.0714C20.3532 23.0714 23.0714 20.3532 23.0714 17C23.0714 13.6468 20.3532 10.9286 17 10.9286C13.6468 10.9286 10.9286 13.6468 10.9286 17C10.9286 20.3532 13.6468 23.0714 17 23.0714Z" fill="#AD2E2E"/>
</g>
</g>
</g>
<defs>
<filter id="filter0_i_927_7511" x="0" y="0" width="34" height="34" filterUnits="userSpaceOnUse" color-interpolation-filters="sRGB">
<feFlood flood-opacity="0" result="BackgroundImageFix"/>
<feBlend mode="normal" in="SourceGraphic" in2="BackgroundImageFix" result="shape"/>
<feColorMatrix in="SourceAlpha" type="matrix" values="0 0 0 0 0 0 0 0 0 0 0 0 0 0 0 0 0 0 127 0" result="hardAlpha"/>
<feOffset dy="-1.21429"/>
<feComposite in2="hardAlpha" operator="arithmetic" k2="-1" k3="1"/>
<feColorMatrix type="matrix" values="0 0 0 0 0 0 0 0 0 0 0 0 0 0 0 0 0 0 0.25 0"/>
<feBlend mode="normal" in2="shape" result="effect1_innerShadow_927_7511"/>
</filter>
</defs>
</svg>
