<svg width="34" height="34" viewBox="0 0 34 34" fill="none" xmlns="http://www.w3.org/2000/svg">
<g id="Icon/MediumArrow-Left">
<g id="Frame">
<g id="Figure" filter="url(#filter0_i_927_7546)">
<path d="M25.7264 30.7375C26.2006 30.2633 26.2006 29.4945 25.7264 29.0203L13.7058 16.9996L25.7264 4.97902C26.2006 4.50481 26.2006 3.73597 25.7264 3.26176L24.0091 1.5445C23.5349 1.07029 22.7661 1.07029 22.2919 1.5445L9.42482 14.4115C9.4207 14.4155 9.4166 14.4196 9.41252 14.4237L7.69526 16.1409C7.46323 16.373 7.34473 16.6755 7.33977 16.9796C7.33454 17.297 7.45304 17.6161 7.69526 17.8584L22.2919 32.4548C22.7661 32.929 23.5349 32.929 24.0091 32.4548L25.7264 30.7375Z" fill="#AD2E2E"/>
</g>
</g>
</g>
<defs>
<filter id="filter0_i_927_7546" x="7.3396" y="1.18884" width="18.7424" height="31.6216" filterUnits="userSpaceOnUse" color-interpolation-filters="sRGB">
<feFlood flood-opacity="0" result="BackgroundImageFix"/>
<feBlend mode="normal" in="SourceGraphic" in2="BackgroundImageFix" result="shape"/>
<feColorMatrix in="SourceAlpha" type="matrix" values="0 0 0 0 0 0 0 0 0 0 0 0 0 0 0 0 0 0 127 0" result="hardAlpha"/>
<feOffset dy="-1.21429"/>
<feComposite in2="hardAlpha" operator="arithmetic" k2="-1" k3="1"/>
<feColorMatrix type="matrix" values="0 0 0 0 0 0 0 0 0 0 0 0 0 0 0 0 0 0 0.25 0"/>
<feBlend mode="normal" in2="shape" result="effect1_innerShadow_927_7546"/>
</filter>
</defs>
</svg>
