<svg width="34" height="34" viewBox="0 0 34 34" fill="none" xmlns="http://www.w3.org/2000/svg">
<g id="Icon/Multiplayer">
<g id="Group">
<g id="Ellipse" filter="url(#filter0_i_927_7702)">
<circle cx="7.99986" cy="14.2136" r="3.42857" fill="#AD2E2E"/>
</g>
<g id="Ellipse_2" filter="url(#filter1_i_927_7702)">
<path d="M16 26.7853C16 24.6635 15.1571 22.6287 13.6569 21.1284C12.1566 19.6281 10.1217 18.7853 8 18.7853C5.87827 18.7853 3.84344 19.6281 2.34315 21.1284C0.842855 22.6287 3.20373e-07 24.6635 0 26.7853L16 26.7853Z" fill="#AD2E2E"/>
</g>
<g id="Ellipse_3" filter="url(#filter2_i_927_7702)">
<circle cx="26.0001" cy="14.2136" r="3.42857" fill="#AD2E2E"/>
</g>
<g id="Ellipse_4" filter="url(#filter3_i_927_7702)">
<path d="M33.9998 26.7853C33.9998 24.6635 33.1569 22.6287 31.6566 21.1284C30.1563 19.6281 28.1215 18.7853 25.9998 18.7853C23.878 18.7853 21.8432 19.6281 20.3429 21.1284C18.8426 22.6287 17.9998 24.6635 17.9998 26.7853L33.9998 26.7853Z" fill="#AD2E2E"/>
</g>
<g id="Ellipse_5" filter="url(#filter4_i_927_7702)">
<circle cx="17.0003" cy="10.7143" r="3.42857" fill="#AD2E2E"/>
</g>
<g id="Figure" filter="url(#filter5_i_927_7702)">
<path d="M23.3652 18.4392C23.1487 18.1549 22.9123 17.8839 22.6568 17.6284C21.1565 16.1281 19.1216 15.2853 16.9999 15.2853C14.8782 15.2853 12.8433 16.1281 11.343 17.6284C11.0877 17.8838 10.8514 18.1546 10.635 18.4388C11.9963 18.7955 13.2518 19.5085 14.264 20.5207C15.058 21.3146 15.6678 22.2583 16.0661 23.2853H17.9339C18.3322 22.2585 18.9419 21.315 19.7357 20.5212C20.748 19.509 22.0037 18.796 23.3652 18.4392Z" fill="#AD2E2E"/>
</g>
</g>
</g>
<defs>
<filter id="filter0_i_927_7702" x="4.57129" y="10.785" width="6.85718" height="6.85718" filterUnits="userSpaceOnUse" color-interpolation-filters="sRGB">
<feFlood flood-opacity="0" result="BackgroundImageFix"/>
<feBlend mode="normal" in="SourceGraphic" in2="BackgroundImageFix" result="shape"/>
<feColorMatrix in="SourceAlpha" type="matrix" values="0 0 0 0 0 0 0 0 0 0 0 0 0 0 0 0 0 0 127 0" result="hardAlpha"/>
<feOffset dy="-1.21429"/>
<feComposite in2="hardAlpha" operator="arithmetic" k2="-1" k3="1"/>
<feColorMatrix type="matrix" values="0 0 0 0 0 0 0 0 0 0 0 0 0 0 0 0 0 0 0.25 0"/>
<feBlend mode="normal" in2="shape" result="effect1_innerShadow_927_7702"/>
</filter>
<filter id="filter1_i_927_7702" x="0" y="18.7853" width="16" height="8" filterUnits="userSpaceOnUse" color-interpolation-filters="sRGB">
<feFlood flood-opacity="0" result="BackgroundImageFix"/>
<feBlend mode="normal" in="SourceGraphic" in2="BackgroundImageFix" result="shape"/>
<feColorMatrix in="SourceAlpha" type="matrix" values="0 0 0 0 0 0 0 0 0 0 0 0 0 0 0 0 0 0 127 0" result="hardAlpha"/>
<feOffset dy="-1.21429"/>
<feComposite in2="hardAlpha" operator="arithmetic" k2="-1" k3="1"/>
<feColorMatrix type="matrix" values="0 0 0 0 0 0 0 0 0 0 0 0 0 0 0 0 0 0 0.25 0"/>
<feBlend mode="normal" in2="shape" result="effect1_innerShadow_927_7702"/>
</filter>
<filter id="filter2_i_927_7702" x="22.5715" y="10.785" width="6.85718" height="6.85718" filterUnits="userSpaceOnUse" color-interpolation-filters="sRGB">
<feFlood flood-opacity="0" result="BackgroundImageFix"/>
<feBlend mode="normal" in="SourceGraphic" in2="BackgroundImageFix" result="shape"/>
<feColorMatrix in="SourceAlpha" type="matrix" values="0 0 0 0 0 0 0 0 0 0 0 0 0 0 0 0 0 0 127 0" result="hardAlpha"/>
<feOffset dy="-1.21429"/>
<feComposite in2="hardAlpha" operator="arithmetic" k2="-1" k3="1"/>
<feColorMatrix type="matrix" values="0 0 0 0 0 0 0 0 0 0 0 0 0 0 0 0 0 0 0.25 0"/>
<feBlend mode="normal" in2="shape" result="effect1_innerShadow_927_7702"/>
</filter>
<filter id="filter3_i_927_7702" x="17.9998" y="18.7853" width="16" height="8" filterUnits="userSpaceOnUse" color-interpolation-filters="sRGB">
<feFlood flood-opacity="0" result="BackgroundImageFix"/>
<feBlend mode="normal" in="SourceGraphic" in2="BackgroundImageFix" result="shape"/>
<feColorMatrix in="SourceAlpha" type="matrix" values="0 0 0 0 0 0 0 0 0 0 0 0 0 0 0 0 0 0 127 0" result="hardAlpha"/>
<feOffset dy="-1.21429"/>
<feComposite in2="hardAlpha" operator="arithmetic" k2="-1" k3="1"/>
<feColorMatrix type="matrix" values="0 0 0 0 0 0 0 0 0 0 0 0 0 0 0 0 0 0 0.25 0"/>
<feBlend mode="normal" in2="shape" result="effect1_innerShadow_927_7702"/>
</filter>
<filter id="filter4_i_927_7702" x="13.5718" y="7.28577" width="6.85718" height="6.85718" filterUnits="userSpaceOnUse" color-interpolation-filters="sRGB">
<feFlood flood-opacity="0" result="BackgroundImageFix"/>
<feBlend mode="normal" in="SourceGraphic" in2="BackgroundImageFix" result="shape"/>
<feColorMatrix in="SourceAlpha" type="matrix" values="0 0 0 0 0 0 0 0 0 0 0 0 0 0 0 0 0 0 127 0" result="hardAlpha"/>
<feOffset dy="-1.21429"/>
<feComposite in2="hardAlpha" operator="arithmetic" k2="-1" k3="1"/>
<feColorMatrix type="matrix" values="0 0 0 0 0 0 0 0 0 0 0 0 0 0 0 0 0 0 0.25 0"/>
<feBlend mode="normal" in2="shape" result="effect1_innerShadow_927_7702"/>
</filter>
<filter id="filter5_i_927_7702" x="10.635" y="15.2853" width="12.7302" height="8" filterUnits="userSpaceOnUse" color-interpolation-filters="sRGB">
<feFlood flood-opacity="0" result="BackgroundImageFix"/>
<feBlend mode="normal" in="SourceGraphic" in2="BackgroundImageFix" result="shape"/>
<feColorMatrix in="SourceAlpha" type="matrix" values="0 0 0 0 0 0 0 0 0 0 0 0 0 0 0 0 0 0 127 0" result="hardAlpha"/>
<feOffset dy="-1.21429"/>
<feComposite in2="hardAlpha" operator="arithmetic" k2="-1" k3="1"/>
<feColorMatrix type="matrix" values="0 0 0 0 0 0 0 0 0 0 0 0 0 0 0 0 0 0 0.25 0"/>
<feBlend mode="normal" in2="shape" result="effect1_innerShadow_927_7702"/>
</filter>
</defs>
</svg>
