<svg width="34" height="34" viewBox="0 0 34 34" fill="none" xmlns="http://www.w3.org/2000/svg">
<g id="Icon/ShareLink">
<g id="Group">
<g id="Figure" filter="url(#filter0_i_927_7562)">
<path d="M30.9643 6.67852C30.9643 9.69636 28.5179 12.1428 25.5001 12.1428C23.6993 12.1428 22.102 11.2717 21.1065 9.92799L13.6299 13.8991C13.8462 14.4871 13.9643 15.1226 13.9643 15.7857C13.9643 16.58 13.7949 17.3347 13.4901 18.0156L21.6306 23.4632C22.6199 22.471 23.9883 21.8571 25.5001 21.8571C28.5179 21.8571 30.9643 24.3035 30.9643 27.3214C30.9643 30.3392 28.5179 32.7857 25.5001 32.7857C22.4822 32.7857 20.0358 30.3392 20.0358 27.3214C20.0358 26.6907 20.1426 26.0849 20.3392 25.5212L12.0274 19.9591C11.0756 20.7644 9.84453 21.2499 8.50005 21.2499C5.48221 21.2499 3.03577 18.8035 3.03577 15.7857C3.03577 12.7678 5.48221 10.3214 8.50005 10.3214C9.97561 10.3214 11.3146 10.9062 12.2978 11.8568L20.1304 7.69656C20.0683 7.36672 20.0358 7.02642 20.0358 6.67852C20.0358 3.66068 22.4822 1.21423 25.5001 1.21423C28.5179 1.21423 30.9643 3.66068 30.9643 6.67852Z" fill="#AD2E2E"/>
</g>
</g>
</g>
<defs>
<filter id="filter0_i_927_7562" x="3.03577" y="1.21423" width="27.9286" height="31.5714" filterUnits="userSpaceOnUse" color-interpolation-filters="sRGB">
<feFlood flood-opacity="0" result="BackgroundImageFix"/>
<feBlend mode="normal" in="SourceGraphic" in2="BackgroundImageFix" result="shape"/>
<feColorMatrix in="SourceAlpha" type="matrix" values="0 0 0 0 0 0 0 0 0 0 0 0 0 0 0 0 0 0 127 0" result="hardAlpha"/>
<feOffset dy="-1.21429"/>
<feComposite in2="hardAlpha" operator="arithmetic" k2="-1" k3="1"/>
<feColorMatrix type="matrix" values="0 0 0 0 0 0 0 0 0 0 0 0 0 0 0 0 0 0 0.25 0"/>
<feBlend mode="normal" in2="shape" result="effect1_innerShadow_927_7562"/>
</filter>
</defs>
</svg>
