<svg width="80" height="70" viewBox="0 0 80 70" fill="none" xmlns="http://www.w3.org/2000/svg">
<g id="Buttons/Simple/Blue-Square/Cross-Hover">
<g id="@Fill/Simple/Blue-Square-Hover">
<g id="Rectangle">
<g filter="url(#filter0_i_927_19792)">
<rect width="80" height="70" rx="7" fill="#98A9FF"/>
</g>
<rect x="1.5" y="1.5" width="77" height="67" rx="5.5" stroke="#3A4EBA" stroke-width="3" stroke-linecap="round" stroke-linejoin="round"/>
</g>
<g id="Rectangle_2" filter="url(#filter1_i_927_19792)">
<rect x="9" y="9" width="62" height="52" fill="#99ABFF"/>
</g>
<rect id="Rectangle_3" x="9" y="9" width="62" height="52" rx="2" stroke="#3A4EBA" stroke-width="3" stroke-linecap="round" stroke-linejoin="round"/>
</g>
<g id="Icon/Cross">
<g id="Figure" filter="url(#filter2_i_927_19792)">
<path d="M54.167 26.8429C54.6412 26.3687 54.6412 25.5998 54.167 25.1256L49.8739 20.8325C49.3996 20.3583 48.6308 20.3583 48.1566 20.8325L39.9997 28.9894L31.8428 20.8325C31.3686 20.3583 30.5998 20.3583 30.1256 20.8325L25.8324 25.1257C25.3582 25.5999 25.3582 26.3687 25.8324 26.8429L33.9893 34.9998L25.8322 43.1568C25.358 43.631 25.358 44.3999 25.8322 44.8741L30.1254 49.1672C30.5996 49.6414 31.3684 49.6414 31.8426 49.1672L39.9997 41.0102L48.1568 49.1673C48.631 49.6415 49.3998 49.6415 49.874 49.1673L54.1672 44.8741C54.6414 44.3999 54.6414 43.6311 54.1672 43.1569L46.0101 34.9998L54.167 26.8429Z" fill="#3A4EBA"/>
</g>
</g>
</g>
<defs>
<filter id="filter0_i_927_19792" x="0" y="0" width="80" height="70" filterUnits="userSpaceOnUse" color-interpolation-filters="sRGB">
<feFlood flood-opacity="0" result="BackgroundImageFix"/>
<feBlend mode="normal" in="SourceGraphic" in2="BackgroundImageFix" result="shape"/>
<feColorMatrix in="SourceAlpha" type="matrix" values="0 0 0 0 0 0 0 0 0 0 0 0 0 0 0 0 0 0 127 0" result="hardAlpha"/>
<feMorphology radius="5" operator="erode" in="SourceAlpha" result="effect1_innerShadow_927_19792"/>
<feOffset/>
<feComposite in2="hardAlpha" operator="arithmetic" k2="-1" k3="1"/>
<feColorMatrix type="matrix" values="0 0 0 0 0.501961 0 0 0 0 0.580392 0 0 0 0 1 0 0 0 1 0"/>
<feBlend mode="normal" in2="shape" result="effect1_innerShadow_927_19792"/>
</filter>
<filter id="filter1_i_927_19792" x="9" y="9" width="62" height="52" filterUnits="userSpaceOnUse" color-interpolation-filters="sRGB">
<feFlood flood-opacity="0" result="BackgroundImageFix"/>
<feBlend mode="normal" in="SourceGraphic" in2="BackgroundImageFix" result="shape"/>
<feColorMatrix in="SourceAlpha" type="matrix" values="0 0 0 0 0 0 0 0 0 0 0 0 0 0 0 0 0 0 127 0" result="hardAlpha"/>
<feMorphology radius="5" operator="erode" in="SourceAlpha" result="effect1_innerShadow_927_19792"/>
<feOffset/>
<feComposite in2="hardAlpha" operator="arithmetic" k2="-1" k3="1"/>
<feColorMatrix type="matrix" values="0 0 0 0 0.478431 0 0 0 0 0.560784 0 0 0 0 0.984314 0 0 0 1 0"/>
<feBlend mode="normal" in2="shape" result="effect1_innerShadow_927_19792"/>
</filter>
<filter id="filter2_i_927_19792" x="25.4766" y="20.4768" width="29.0464" height="29.0461" filterUnits="userSpaceOnUse" color-interpolation-filters="sRGB">
<feFlood flood-opacity="0" result="BackgroundImageFix"/>
<feBlend mode="normal" in="SourceGraphic" in2="BackgroundImageFix" result="shape"/>
<feColorMatrix in="SourceAlpha" type="matrix" values="0 0 0 0 0 0 0 0 0 0 0 0 0 0 0 0 0 0 127 0" result="hardAlpha"/>
<feOffset dy="-1.21429"/>
<feComposite in2="hardAlpha" operator="arithmetic" k2="-1" k3="1"/>
<feColorMatrix type="matrix" values="0 0 0 0 0 0 0 0 0 0 0 0 0 0 0 0 0 0 0.25 0"/>
<feBlend mode="normal" in2="shape" result="effect1_innerShadow_927_19792"/>
</filter>
</defs>
</svg>
