<svg width="80" height="70" viewBox="0 0 80 70" fill="none" xmlns="http://www.w3.org/2000/svg">
<g id="Buttons/Simple/Blue-Square/MediumArrow-Left-Hover">
<g id="@Fill/Simple/Blue-Square-Hover">
<g id="Rectangle">
<g filter="url(#filter0_i_927_19560)">
<rect width="80" height="70" rx="7" fill="#98A9FF"/>
</g>
<rect x="1.5" y="1.5" width="77" height="67" rx="5.5" stroke="#3A4EBA" stroke-width="3" stroke-linecap="round" stroke-linejoin="round"/>
</g>
<g id="Rectangle_2" filter="url(#filter1_i_927_19560)">
<rect x="9" y="9" width="62" height="52" fill="#99ABFF"/>
</g>
<rect id="Rectangle_3" x="9" y="9" width="62" height="52" rx="2" stroke="#3A4EBA" stroke-width="3" stroke-linecap="round" stroke-linejoin="round"/>
</g>
<g id="Icon/MediumArrow-Left">
<g id="Frame">
<g id="Figure" filter="url(#filter2_i_927_19560)">
<path d="M48.7264 48.7375C49.2006 48.2633 49.2006 47.4944 48.7264 47.0202L36.7058 34.9996L48.7264 22.979C49.2006 22.5047 49.2006 21.7359 48.7264 21.2617L47.0091 19.5444C46.5349 19.0702 45.7661 19.0702 45.2919 19.5444L32.4248 32.4115C32.4207 32.4155 32.4166 32.4195 32.4125 32.4236L30.6953 34.1409C30.4632 34.3729 30.3447 34.6755 30.3398 34.9795C30.3345 35.297 30.453 35.6161 30.6953 35.8583L45.2919 50.4547C45.7661 50.9289 46.5349 50.9289 47.0091 50.4547L48.7264 48.7375Z" fill="#3A4EBA"/>
</g>
</g>
</g>
</g>
<defs>
<filter id="filter0_i_927_19560" x="0" y="0" width="80" height="70" filterUnits="userSpaceOnUse" color-interpolation-filters="sRGB">
<feFlood flood-opacity="0" result="BackgroundImageFix"/>
<feBlend mode="normal" in="SourceGraphic" in2="BackgroundImageFix" result="shape"/>
<feColorMatrix in="SourceAlpha" type="matrix" values="0 0 0 0 0 0 0 0 0 0 0 0 0 0 0 0 0 0 127 0" result="hardAlpha"/>
<feMorphology radius="5" operator="erode" in="SourceAlpha" result="effect1_innerShadow_927_19560"/>
<feOffset/>
<feComposite in2="hardAlpha" operator="arithmetic" k2="-1" k3="1"/>
<feColorMatrix type="matrix" values="0 0 0 0 0.501961 0 0 0 0 0.580392 0 0 0 0 1 0 0 0 1 0"/>
<feBlend mode="normal" in2="shape" result="effect1_innerShadow_927_19560"/>
</filter>
<filter id="filter1_i_927_19560" x="9" y="9" width="62" height="52" filterUnits="userSpaceOnUse" color-interpolation-filters="sRGB">
<feFlood flood-opacity="0" result="BackgroundImageFix"/>
<feBlend mode="normal" in="SourceGraphic" in2="BackgroundImageFix" result="shape"/>
<feColorMatrix in="SourceAlpha" type="matrix" values="0 0 0 0 0 0 0 0 0 0 0 0 0 0 0 0 0 0 127 0" result="hardAlpha"/>
<feMorphology radius="5" operator="erode" in="SourceAlpha" result="effect1_innerShadow_927_19560"/>
<feOffset/>
<feComposite in2="hardAlpha" operator="arithmetic" k2="-1" k3="1"/>
<feColorMatrix type="matrix" values="0 0 0 0 0.478431 0 0 0 0 0.560784 0 0 0 0 0.984314 0 0 0 1 0"/>
<feBlend mode="normal" in2="shape" result="effect1_innerShadow_927_19560"/>
</filter>
<filter id="filter2_i_927_19560" x="30.3396" y="19.1888" width="18.7424" height="31.6216" filterUnits="userSpaceOnUse" color-interpolation-filters="sRGB">
<feFlood flood-opacity="0" result="BackgroundImageFix"/>
<feBlend mode="normal" in="SourceGraphic" in2="BackgroundImageFix" result="shape"/>
<feColorMatrix in="SourceAlpha" type="matrix" values="0 0 0 0 0 0 0 0 0 0 0 0 0 0 0 0 0 0 127 0" result="hardAlpha"/>
<feOffset dy="-1.21429"/>
<feComposite in2="hardAlpha" operator="arithmetic" k2="-1" k3="1"/>
<feColorMatrix type="matrix" values="0 0 0 0 0 0 0 0 0 0 0 0 0 0 0 0 0 0 0.25 0"/>
<feBlend mode="normal" in2="shape" result="effect1_innerShadow_927_19560"/>
</filter>
</defs>
</svg>
