<svg width="80" height="70" viewBox="0 0 80 70" fill="none" xmlns="http://www.w3.org/2000/svg">
<g id="Buttons/Simple/Blue-Square/Music-On-Default">
<g id="@Fill/Simple/Blue-Square-Default">
<g id="Rectangle">
<g filter="url(#filter0_i_927_19133)">
<rect width="80" height="70" rx="7" fill="#98A9FF"/>
</g>
<rect x="1.5" y="1.5" width="77" height="67" rx="5.5" stroke="#3A4EBA" stroke-width="3" stroke-linecap="round" stroke-linejoin="round"/>
</g>
<g id="Rectangle_2" filter="url(#filter1_i_927_19133)">
<rect x="9" y="9" width="62" height="52" fill="#8FA1FF"/>
</g>
<rect id="Rectangle_3" x="9" y="9" width="62" height="52" rx="2" stroke="#3A4EBA" stroke-width="3" stroke-linecap="round" stroke-linejoin="round"/>
</g>
<g id="Icon/Music-On">
<g id="Group">
<g id="Figure" filter="url(#filter2_i_927_19133)">
<path d="M32.7143 18C32.0437 18 31.5 18.5437 31.5 19.2143V38.8943C30.921 38.7305 30.31 38.6429 29.6786 38.6429C25.9901 38.6429 23 41.633 23 45.3214C23 49.0099 25.9901 52 29.6786 52C33.367 52 36.3571 49.0099 36.3571 45.3214C36.3571 45.1168 36.3479 44.9143 36.3299 44.7143H36.3571V26.5H47.8929V32.2157C47.3138 32.0519 46.7029 31.9643 46.0714 31.9643C42.383 31.9643 39.3929 34.9544 39.3929 38.6429C39.3929 42.3313 42.383 45.3214 46.0714 45.3214C49.7599 45.3214 52.75 42.3313 52.75 38.6429C52.75 38.4382 52.7408 38.2357 52.7228 38.0357H52.75V19.2143C52.75 18.5437 52.2063 18 51.5357 18H32.7143Z" fill="#3A4EBA"/>
</g>
</g>
</g>
</g>
<defs>
<filter id="filter0_i_927_19133" x="0" y="0" width="80" height="70" filterUnits="userSpaceOnUse" color-interpolation-filters="sRGB">
<feFlood flood-opacity="0" result="BackgroundImageFix"/>
<feBlend mode="normal" in="SourceGraphic" in2="BackgroundImageFix" result="shape"/>
<feColorMatrix in="SourceAlpha" type="matrix" values="0 0 0 0 0 0 0 0 0 0 0 0 0 0 0 0 0 0 127 0" result="hardAlpha"/>
<feMorphology radius="5" operator="erode" in="SourceAlpha" result="effect1_innerShadow_927_19133"/>
<feOffset/>
<feComposite in2="hardAlpha" operator="arithmetic" k2="-1" k3="1"/>
<feColorMatrix type="matrix" values="0 0 0 0 0.501961 0 0 0 0 0.580392 0 0 0 0 1 0 0 0 1 0"/>
<feBlend mode="normal" in2="shape" result="effect1_innerShadow_927_19133"/>
</filter>
<filter id="filter1_i_927_19133" x="9" y="9" width="62" height="52" filterUnits="userSpaceOnUse" color-interpolation-filters="sRGB">
<feFlood flood-opacity="0" result="BackgroundImageFix"/>
<feBlend mode="normal" in="SourceGraphic" in2="BackgroundImageFix" result="shape"/>
<feColorMatrix in="SourceAlpha" type="matrix" values="0 0 0 0 0 0 0 0 0 0 0 0 0 0 0 0 0 0 127 0" result="hardAlpha"/>
<feMorphology radius="5" operator="erode" in="SourceAlpha" result="effect1_innerShadow_927_19133"/>
<feOffset/>
<feComposite in2="hardAlpha" operator="arithmetic" k2="-1" k3="1"/>
<feColorMatrix type="matrix" values="0 0 0 0 0.478431 0 0 0 0 0.560784 0 0 0 0 0.984314 0 0 0 1 0"/>
<feBlend mode="normal" in2="shape" result="effect1_innerShadow_927_19133"/>
</filter>
<filter id="filter2_i_927_19133" x="23" y="18" width="29.75" height="34" filterUnits="userSpaceOnUse" color-interpolation-filters="sRGB">
<feFlood flood-opacity="0" result="BackgroundImageFix"/>
<feBlend mode="normal" in="SourceGraphic" in2="BackgroundImageFix" result="shape"/>
<feColorMatrix in="SourceAlpha" type="matrix" values="0 0 0 0 0 0 0 0 0 0 0 0 0 0 0 0 0 0 127 0" result="hardAlpha"/>
<feOffset dy="-1.21429"/>
<feComposite in2="hardAlpha" operator="arithmetic" k2="-1" k3="1"/>
<feColorMatrix type="matrix" values="0 0 0 0 0 0 0 0 0 0 0 0 0 0 0 0 0 0 0.25 0"/>
<feBlend mode="normal" in2="shape" result="effect1_innerShadow_927_19133"/>
</filter>
</defs>
</svg>
