<svg width="80" height="70" viewBox="0 0 80 70" fill="none" xmlns="http://www.w3.org/2000/svg">
<g id="Buttons/Simple/Blue-Square/Repeat-Right-Hover">
<g id="@Fill/Simple/Blue-Square-Hover">
<g id="Rectangle">
<g filter="url(#filter0_i_927_19681)">
<rect width="80" height="70" rx="7" fill="#98A9FF"/>
</g>
<rect x="1.5" y="1.5" width="77" height="67" rx="5.5" stroke="#3A4EBA" stroke-width="3" stroke-linecap="round" stroke-linejoin="round"/>
</g>
<g id="Rectangle_2" filter="url(#filter1_i_927_19681)">
<rect x="9" y="9" width="62" height="52" fill="#99ABFF"/>
</g>
<rect id="Rectangle_3" x="9" y="9" width="62" height="52" rx="2" stroke="#3A4EBA" stroke-width="3" stroke-linecap="round" stroke-linejoin="round"/>
</g>
<g id="Icon/Repeat-Right">
<g id="Group">
<g id="Vector" filter="url(#filter2_i_927_19681)">
<path fill-rule="evenodd" clip-rule="evenodd" d="M39.3929 26.5C37.3515 26.5 35.356 27.1054 33.6587 28.2395C31.9613 29.3736 30.6384 30.9856 29.8572 32.8716C29.076 34.7576 28.8716 36.8329 29.2698 38.8351C29.6681 40.8372 30.6511 42.6763 32.0946 44.1198C33.5381 45.5633 35.3772 46.5463 37.3793 46.9446C39.3815 47.3428 41.4568 47.1384 43.3428 46.3572C45.2288 45.576 46.8408 44.2531 47.9749 42.5557C48.8833 41.1962 49.4524 39.6454 49.643 38.033C49.7217 37.367 50.258 36.8215 50.9286 36.8215H53.3572C54.0278 36.8215 54.5765 37.366 54.523 38.0345C54.3166 40.609 53.4558 43.0956 52.0134 45.2542C50.3456 47.7503 47.975 49.6958 45.2015 50.8446C42.428 51.9935 39.3761 52.294 36.4317 51.7084C33.4874 51.1227 30.7828 49.6771 28.6601 47.5543C26.5373 45.4316 25.0917 42.727 24.506 39.7826C23.9203 36.8383 24.2209 33.7864 25.3698 31.0129C26.5186 28.2393 28.4641 25.8688 30.9602 24.2009C33.4563 22.5331 36.3909 21.6429 39.3929 21.6429V26.5Z" fill="#3A4EBA"/>
<path d="M46.5096 23.0834C47.1876 23.5676 47.1876 24.5753 46.5096 25.0596L41.313 28.7714C40.5093 29.3455 39.3929 28.771 39.3929 27.7833L39.3929 20.3596C39.3929 19.3719 40.5093 18.7974 41.313 19.3715L46.5096 23.0834Z" fill="#3A4EBA"/>
</g>
</g>
</g>
</g>
<defs>
<filter id="filter0_i_927_19681" x="0" y="0" width="80" height="70" filterUnits="userSpaceOnUse" color-interpolation-filters="sRGB">
<feFlood flood-opacity="0" result="BackgroundImageFix"/>
<feBlend mode="normal" in="SourceGraphic" in2="BackgroundImageFix" result="shape"/>
<feColorMatrix in="SourceAlpha" type="matrix" values="0 0 0 0 0 0 0 0 0 0 0 0 0 0 0 0 0 0 127 0" result="hardAlpha"/>
<feMorphology radius="5" operator="erode" in="SourceAlpha" result="effect1_innerShadow_927_19681"/>
<feOffset/>
<feComposite in2="hardAlpha" operator="arithmetic" k2="-1" k3="1"/>
<feColorMatrix type="matrix" values="0 0 0 0 0.501961 0 0 0 0 0.580392 0 0 0 0 1 0 0 0 1 0"/>
<feBlend mode="normal" in2="shape" result="effect1_innerShadow_927_19681"/>
</filter>
<filter id="filter1_i_927_19681" x="9" y="9" width="62" height="52" filterUnits="userSpaceOnUse" color-interpolation-filters="sRGB">
<feFlood flood-opacity="0" result="BackgroundImageFix"/>
<feBlend mode="normal" in="SourceGraphic" in2="BackgroundImageFix" result="shape"/>
<feColorMatrix in="SourceAlpha" type="matrix" values="0 0 0 0 0 0 0 0 0 0 0 0 0 0 0 0 0 0 127 0" result="hardAlpha"/>
<feMorphology radius="5" operator="erode" in="SourceAlpha" result="effect1_innerShadow_927_19681"/>
<feOffset/>
<feComposite in2="hardAlpha" operator="arithmetic" k2="-1" k3="1"/>
<feColorMatrix type="matrix" values="0 0 0 0 0.478431 0 0 0 0 0.560784 0 0 0 0 0.984314 0 0 0 1 0"/>
<feBlend mode="normal" in2="shape" result="effect1_innerShadow_927_19681"/>
</filter>
<filter id="filter2_i_927_19681" x="24.2144" y="19.1432" width="30.312" height="32.8568" filterUnits="userSpaceOnUse" color-interpolation-filters="sRGB">
<feFlood flood-opacity="0" result="BackgroundImageFix"/>
<feBlend mode="normal" in="SourceGraphic" in2="BackgroundImageFix" result="shape"/>
<feColorMatrix in="SourceAlpha" type="matrix" values="0 0 0 0 0 0 0 0 0 0 0 0 0 0 0 0 0 0 127 0" result="hardAlpha"/>
<feOffset dy="-1.21429"/>
<feComposite in2="hardAlpha" operator="arithmetic" k2="-1" k3="1"/>
<feColorMatrix type="matrix" values="0 0 0 0 0 0 0 0 0 0 0 0 0 0 0 0 0 0 0.25 0"/>
<feBlend mode="normal" in2="shape" result="effect1_innerShadow_927_19681"/>
</filter>
</defs>
</svg>
