<svg width="80" height="70" viewBox="0 0 80 70" fill="none" xmlns="http://www.w3.org/2000/svg">
<g id="Buttons/Simple/Blue-Square/Sound-None-Default">
<g id="@Fill/Simple/Blue-Square-Default">
<g id="Rectangle">
<g filter="url(#filter0_i_927_19341)">
<rect width="80" height="70" rx="7" fill="#98A9FF"/>
</g>
<rect x="1.5" y="1.5" width="77" height="67" rx="5.5" stroke="#3A4EBA" stroke-width="3" stroke-linecap="round" stroke-linejoin="round"/>
</g>
<g id="Rectangle_2" filter="url(#filter1_i_927_19341)">
<rect x="9" y="9" width="62" height="52" fill="#8FA1FF"/>
</g>
<rect id="Rectangle_3" x="9" y="9" width="62" height="52" rx="2" stroke="#3A4EBA" stroke-width="3" stroke-linecap="round" stroke-linejoin="round"/>
</g>
<g id="Icon/Sound-None">
<g id="Group">
<g id="Figure" filter="url(#filter2_i_927_19341)">
<path d="M37.9271 49.9273C38.692 50.6923 40 50.1505 40 49.0687V20.9318C40 19.85 38.692 19.3082 37.9271 20.0732L30.2857 27.7146H24.2143C23.5437 27.7146 23 28.2582 23 28.9288V41.0717C23 41.7423 23.5437 42.286 24.2143 42.286H30.2857L37.9271 49.9273Z" fill="#3A4EBA"/>
</g>
<g id="Figure_2" filter="url(#filter3_i_927_19341)">
<path d="M47.819 31.1361C47.3448 30.6618 46.5759 30.6618 46.1017 31.1361L45.2431 31.9947C44.7689 32.4689 44.7689 33.2377 45.2431 33.7119L46.5313 35.0001L45.2433 36.2881C44.7691 36.7624 44.7691 37.5312 45.2433 38.0054L46.1019 38.864C46.5761 39.3382 47.3449 39.3382 47.8192 38.864L49.1072 37.576L50.3949 38.8637C50.8691 39.3379 51.6379 39.3379 52.1121 38.8637L52.9708 38.0051C53.445 37.5309 53.445 36.762 52.9708 36.2878L51.6831 35.0001L52.9709 33.7123C53.4451 33.2381 53.4451 32.4692 52.9709 31.995L52.1123 31.1364C51.6381 30.6622 50.8692 30.6622 50.395 31.1364L49.1072 32.4242L47.819 31.1361Z" fill="#3A4EBA"/>
</g>
</g>
</g>
</g>
<defs>
<filter id="filter0_i_927_19341" x="0" y="0" width="80" height="70" filterUnits="userSpaceOnUse" color-interpolation-filters="sRGB">
<feFlood flood-opacity="0" result="BackgroundImageFix"/>
<feBlend mode="normal" in="SourceGraphic" in2="BackgroundImageFix" result="shape"/>
<feColorMatrix in="SourceAlpha" type="matrix" values="0 0 0 0 0 0 0 0 0 0 0 0 0 0 0 0 0 0 127 0" result="hardAlpha"/>
<feMorphology radius="5" operator="erode" in="SourceAlpha" result="effect1_innerShadow_927_19341"/>
<feOffset/>
<feComposite in2="hardAlpha" operator="arithmetic" k2="-1" k3="1"/>
<feColorMatrix type="matrix" values="0 0 0 0 0.501961 0 0 0 0 0.580392 0 0 0 0 1 0 0 0 1 0"/>
<feBlend mode="normal" in2="shape" result="effect1_innerShadow_927_19341"/>
</filter>
<filter id="filter1_i_927_19341" x="9" y="9" width="62" height="52" filterUnits="userSpaceOnUse" color-interpolation-filters="sRGB">
<feFlood flood-opacity="0" result="BackgroundImageFix"/>
<feBlend mode="normal" in="SourceGraphic" in2="BackgroundImageFix" result="shape"/>
<feColorMatrix in="SourceAlpha" type="matrix" values="0 0 0 0 0 0 0 0 0 0 0 0 0 0 0 0 0 0 127 0" result="hardAlpha"/>
<feMorphology radius="5" operator="erode" in="SourceAlpha" result="effect1_innerShadow_927_19341"/>
<feOffset/>
<feComposite in2="hardAlpha" operator="arithmetic" k2="-1" k3="1"/>
<feColorMatrix type="matrix" values="0 0 0 0 0.478431 0 0 0 0 0.560784 0 0 0 0 0.984314 0 0 0 1 0"/>
<feBlend mode="normal" in2="shape" result="effect1_innerShadow_927_19341"/>
</filter>
<filter id="filter2_i_927_19341" x="23" y="19.7151" width="17" height="30.5703" filterUnits="userSpaceOnUse" color-interpolation-filters="sRGB">
<feFlood flood-opacity="0" result="BackgroundImageFix"/>
<feBlend mode="normal" in="SourceGraphic" in2="BackgroundImageFix" result="shape"/>
<feColorMatrix in="SourceAlpha" type="matrix" values="0 0 0 0 0 0 0 0 0 0 0 0 0 0 0 0 0 0 127 0" result="hardAlpha"/>
<feOffset dy="-1.21429"/>
<feComposite in2="hardAlpha" operator="arithmetic" k2="-1" k3="1"/>
<feColorMatrix type="matrix" values="0 0 0 0 0 0 0 0 0 0 0 0 0 0 0 0 0 0 0.25 0"/>
<feBlend mode="normal" in2="shape" result="effect1_innerShadow_927_19341"/>
</filter>
<filter id="filter3_i_927_19341" x="44.8875" y="30.7804" width="8.43921" height="8.43933" filterUnits="userSpaceOnUse" color-interpolation-filters="sRGB">
<feFlood flood-opacity="0" result="BackgroundImageFix"/>
<feBlend mode="normal" in="SourceGraphic" in2="BackgroundImageFix" result="shape"/>
<feColorMatrix in="SourceAlpha" type="matrix" values="0 0 0 0 0 0 0 0 0 0 0 0 0 0 0 0 0 0 127 0" result="hardAlpha"/>
<feOffset dy="-1.21429"/>
<feComposite in2="hardAlpha" operator="arithmetic" k2="-1" k3="1"/>
<feColorMatrix type="matrix" values="0 0 0 0 0 0 0 0 0 0 0 0 0 0 0 0 0 0 0.25 0"/>
<feBlend mode="normal" in2="shape" result="effect1_innerShadow_927_19341"/>
</filter>
</defs>
</svg>
