<svg width="80" height="70" viewBox="0 0 80 70" fill="none" xmlns="http://www.w3.org/2000/svg">
<g id="Buttons/Simple/Blue-Square/Star-Hover">
<g id="@Fill/Simple/Blue-Square-Hover">
<g id="Rectangle">
<g filter="url(#filter0_i_927_19479)">
<rect width="80" height="70" rx="7" fill="#98A9FF"/>
</g>
<rect x="1.5" y="1.5" width="77" height="67" rx="5.5" stroke="#3A4EBA" stroke-width="3" stroke-linecap="round" stroke-linejoin="round"/>
</g>
<g id="Rectangle_2" filter="url(#filter1_i_927_19479)">
<rect x="9" y="9" width="62" height="52" fill="#99ABFF"/>
</g>
<rect id="Rectangle_3" x="9" y="9" width="62" height="52" rx="2" stroke="#3A4EBA" stroke-width="3" stroke-linecap="round" stroke-linejoin="round"/>
</g>
<g id="Icon/Star">
<g id="Group">
<g id="Star" filter="url(#filter2_i_927_19479)">
<path d="M37.6768 20.3058C38.408 18.0409 41.592 18.0409 42.3232 20.3058L44.6617 27.5491C44.9888 28.562 45.9267 29.2478 46.985 29.2478H54.5525C56.9189 29.2478 57.9028 32.2953 55.9884 33.6951L49.8661 38.1717C49.0099 38.7977 48.6517 39.9074 48.9787 40.9203L51.3172 48.1636C52.0484 50.4285 49.4726 52.312 47.5581 50.9122L41.4358 46.4356C40.5797 45.8096 39.4203 45.8096 38.5642 46.4356L32.4419 50.9122C30.5274 52.312 27.9516 50.4285 28.6828 48.1636L31.0213 40.9203C31.3483 39.9074 30.9901 38.7977 30.1339 38.1717L24.0116 33.6951C22.0972 32.2953 23.0811 29.2478 25.4475 29.2478H33.015C34.0733 29.2478 35.0112 28.562 35.3383 27.5491L37.6768 20.3058Z" fill="#3A4EBA"/>
</g>
</g>
</g>
</g>
<defs>
<filter id="filter0_i_927_19479" x="0" y="0" width="80" height="70" filterUnits="userSpaceOnUse" color-interpolation-filters="sRGB">
<feFlood flood-opacity="0" result="BackgroundImageFix"/>
<feBlend mode="normal" in="SourceGraphic" in2="BackgroundImageFix" result="shape"/>
<feColorMatrix in="SourceAlpha" type="matrix" values="0 0 0 0 0 0 0 0 0 0 0 0 0 0 0 0 0 0 127 0" result="hardAlpha"/>
<feMorphology radius="5" operator="erode" in="SourceAlpha" result="effect1_innerShadow_927_19479"/>
<feOffset/>
<feComposite in2="hardAlpha" operator="arithmetic" k2="-1" k3="1"/>
<feColorMatrix type="matrix" values="0 0 0 0 0.501961 0 0 0 0 0.580392 0 0 0 0 1 0 0 0 1 0"/>
<feBlend mode="normal" in2="shape" result="effect1_innerShadow_927_19479"/>
</filter>
<filter id="filter1_i_927_19479" x="9" y="9" width="62" height="52" filterUnits="userSpaceOnUse" color-interpolation-filters="sRGB">
<feFlood flood-opacity="0" result="BackgroundImageFix"/>
<feBlend mode="normal" in="SourceGraphic" in2="BackgroundImageFix" result="shape"/>
<feColorMatrix in="SourceAlpha" type="matrix" values="0 0 0 0 0 0 0 0 0 0 0 0 0 0 0 0 0 0 127 0" result="hardAlpha"/>
<feMorphology radius="5" operator="erode" in="SourceAlpha" result="effect1_innerShadow_927_19479"/>
<feOffset/>
<feComposite in2="hardAlpha" operator="arithmetic" k2="-1" k3="1"/>
<feColorMatrix type="matrix" values="0 0 0 0 0.478431 0 0 0 0 0.560784 0 0 0 0 0.984314 0 0 0 1 0"/>
<feBlend mode="normal" in2="shape" result="effect1_innerShadow_927_19479"/>
</filter>
<filter id="filter2_i_927_19479" x="23" y="18.6071" width="34" height="32.7857" filterUnits="userSpaceOnUse" color-interpolation-filters="sRGB">
<feFlood flood-opacity="0" result="BackgroundImageFix"/>
<feBlend mode="normal" in="SourceGraphic" in2="BackgroundImageFix" result="shape"/>
<feColorMatrix in="SourceAlpha" type="matrix" values="0 0 0 0 0 0 0 0 0 0 0 0 0 0 0 0 0 0 127 0" result="hardAlpha"/>
<feOffset dy="-1.21429"/>
<feComposite in2="hardAlpha" operator="arithmetic" k2="-1" k3="1"/>
<feColorMatrix type="matrix" values="0 0 0 0 0 0 0 0 0 0 0 0 0 0 0 0 0 0 0.25 0"/>
<feBlend mode="normal" in2="shape" result="effect1_innerShadow_927_19479"/>
</filter>
</defs>
</svg>
