<svg width="80" height="70" viewBox="0 0 80 70" fill="none" xmlns="http://www.w3.org/2000/svg">
<g id="Buttons/Simple/Blue-Square/TalkBubble-Default">
<g id="@Fill/Simple/Blue-Square-Default">
<g id="Rectangle">
<g filter="url(#filter0_i_927_19387)">
<rect width="80" height="70" rx="7" fill="#98A9FF"/>
</g>
<rect x="1.5" y="1.5" width="77" height="67" rx="5.5" stroke="#3A4EBA" stroke-width="3" stroke-linecap="round" stroke-linejoin="round"/>
</g>
<g id="Rectangle_2" filter="url(#filter1_i_927_19387)">
<rect x="9" y="9" width="62" height="52" fill="#8FA1FF"/>
</g>
<rect id="Rectangle_3" x="9" y="9" width="62" height="52" rx="2" stroke="#3A4EBA" stroke-width="3" stroke-linecap="round" stroke-linejoin="round"/>
</g>
<g id="Icon/TalkBubble">
<g id="Figure" filter="url(#filter2_i_927_19387)">
<path fill-rule="evenodd" clip-rule="evenodd" d="M23 19.2143C23 18.5437 23.5437 18 24.2143 18H55.7857C56.4563 18 57 18.5437 57 19.2143V41.0714C57 41.7421 56.4563 42.2857 55.7857 42.2857H38.1786L30.5372 49.9271C29.7722 50.692 28.4643 50.1503 28.4643 49.0685L28.4643 42.2857H24.2143C23.5437 42.2857 23 41.7421 23 41.0714V19.2143ZM35.1429 30.1429C35.1429 31.4841 34.0555 32.5714 32.7143 32.5714C31.373 32.5714 30.2857 31.4841 30.2857 30.1429C30.2857 28.8016 31.373 27.7143 32.7143 27.7143C34.0555 27.7143 35.1429 28.8016 35.1429 30.1429ZM40 32.5714C41.3413 32.5714 42.4286 31.4841 42.4286 30.1429C42.4286 28.8016 41.3413 27.7143 40 27.7143C38.6587 27.7143 37.5714 28.8016 37.5714 30.1429C37.5714 31.4841 38.6587 32.5714 40 32.5714ZM49.7143 30.1429C49.7143 31.4841 48.627 32.5714 47.2857 32.5714C45.9445 32.5714 44.8571 31.4841 44.8571 30.1429C44.8571 28.8016 45.9445 27.7143 47.2857 27.7143C48.627 27.7143 49.7143 28.8016 49.7143 30.1429Z" fill="#3A4EBA"/>
</g>
</g>
</g>
<defs>
<filter id="filter0_i_927_19387" x="0" y="0" width="80" height="70" filterUnits="userSpaceOnUse" color-interpolation-filters="sRGB">
<feFlood flood-opacity="0" result="BackgroundImageFix"/>
<feBlend mode="normal" in="SourceGraphic" in2="BackgroundImageFix" result="shape"/>
<feColorMatrix in="SourceAlpha" type="matrix" values="0 0 0 0 0 0 0 0 0 0 0 0 0 0 0 0 0 0 127 0" result="hardAlpha"/>
<feMorphology radius="5" operator="erode" in="SourceAlpha" result="effect1_innerShadow_927_19387"/>
<feOffset/>
<feComposite in2="hardAlpha" operator="arithmetic" k2="-1" k3="1"/>
<feColorMatrix type="matrix" values="0 0 0 0 0.501961 0 0 0 0 0.580392 0 0 0 0 1 0 0 0 1 0"/>
<feBlend mode="normal" in2="shape" result="effect1_innerShadow_927_19387"/>
</filter>
<filter id="filter1_i_927_19387" x="9" y="9" width="62" height="52" filterUnits="userSpaceOnUse" color-interpolation-filters="sRGB">
<feFlood flood-opacity="0" result="BackgroundImageFix"/>
<feBlend mode="normal" in="SourceGraphic" in2="BackgroundImageFix" result="shape"/>
<feColorMatrix in="SourceAlpha" type="matrix" values="0 0 0 0 0 0 0 0 0 0 0 0 0 0 0 0 0 0 127 0" result="hardAlpha"/>
<feMorphology radius="5" operator="erode" in="SourceAlpha" result="effect1_innerShadow_927_19387"/>
<feOffset/>
<feComposite in2="hardAlpha" operator="arithmetic" k2="-1" k3="1"/>
<feColorMatrix type="matrix" values="0 0 0 0 0.478431 0 0 0 0 0.560784 0 0 0 0 0.984314 0 0 0 1 0"/>
<feBlend mode="normal" in2="shape" result="effect1_innerShadow_927_19387"/>
</filter>
<filter id="filter2_i_927_19387" x="23" y="18" width="34" height="32.2852" filterUnits="userSpaceOnUse" color-interpolation-filters="sRGB">
<feFlood flood-opacity="0" result="BackgroundImageFix"/>
<feBlend mode="normal" in="SourceGraphic" in2="BackgroundImageFix" result="shape"/>
<feColorMatrix in="SourceAlpha" type="matrix" values="0 0 0 0 0 0 0 0 0 0 0 0 0 0 0 0 0 0 127 0" result="hardAlpha"/>
<feOffset dy="-1.21429"/>
<feComposite in2="hardAlpha" operator="arithmetic" k2="-1" k3="1"/>
<feColorMatrix type="matrix" values="0 0 0 0 0 0 0 0 0 0 0 0 0 0 0 0 0 0 0.25 0"/>
<feBlend mode="normal" in2="shape" result="effect1_innerShadow_927_19387"/>
</filter>
</defs>
</svg>
