<svg width="34" height="34" viewBox="0 0 34 34" fill="none" xmlns="http://www.w3.org/2000/svg">
<g id="Icon/Info">
<g id="Group">
<g id="Figure" filter="url(#filter0_i_927_18870)">
<path d="M23.0715 31.5714C23.7421 31.5714 24.2858 31.0278 24.2858 30.3572V25.5C24.2858 24.8294 23.7421 24.2857 23.0715 24.2857H21.8572V13.3572C21.8572 12.6865 21.3135 12.1429 20.6429 12.1429H10.3215C9.65083 12.1429 9.10718 12.6865 9.10718 13.3572L9.10718 18.2143C9.10718 18.8849 9.65083 19.4286 10.3215 19.4286H12.1429L12.1429 24.2857H10.3215C9.65083 24.2857 9.10718 24.8294 9.10718 25.5L9.10718 30.3572C9.10718 31.0278 9.65083 31.5714 10.3215 31.5714H23.0715Z" fill="#3A4EBA"/>
<path d="M20.6429 9.7143C21.3135 9.7143 21.8572 9.17065 21.8572 8.50002V3.64288C21.8572 2.97224 21.3135 2.42859 20.6429 2.42859L13.3572 2.42859C12.6865 2.42859 12.1429 2.97224 12.1429 3.64287L12.1429 8.50002C12.1429 9.17065 12.6865 9.7143 13.3572 9.7143L20.6429 9.7143Z" fill="#3A4EBA"/>
</g>
</g>
</g>
<defs>
<filter id="filter0_i_927_18870" x="9.10718" y="2.42859" width="15.1785" height="29.1428" filterUnits="userSpaceOnUse" color-interpolation-filters="sRGB">
<feFlood flood-opacity="0" result="BackgroundImageFix"/>
<feBlend mode="normal" in="SourceGraphic" in2="BackgroundImageFix" result="shape"/>
<feColorMatrix in="SourceAlpha" type="matrix" values="0 0 0 0 0 0 0 0 0 0 0 0 0 0 0 0 0 0 127 0" result="hardAlpha"/>
<feOffset dy="-1.21429"/>
<feComposite in2="hardAlpha" operator="arithmetic" k2="-1" k3="1"/>
<feColorMatrix type="matrix" values="0 0 0 0 0 0 0 0 0 0 0 0 0 0 0 0 0 0 0.25 0"/>
<feBlend mode="normal" in2="shape" result="effect1_innerShadow_927_18870"/>
</filter>
</defs>
</svg>
