<svg width="34" height="34" viewBox="0 0 34 34" fill="none" xmlns="http://www.w3.org/2000/svg">
<g id="Icon/Music-On">
<g id="Group">
<g id="Figure" filter="url(#filter0_i_927_18861)">
<path d="M9.71429 0C9.04365 0 8.5 0.543654 8.5 1.21429V20.8943C7.92099 20.7305 7.31001 20.6429 6.67857 20.6429C2.9901 20.6429 0 23.633 0 27.3214C0 31.0099 2.9901 34 6.67857 34C10.367 34 13.3571 31.0099 13.3571 27.3214C13.3571 27.1168 13.3479 26.9143 13.3299 26.7143H13.3571V8.5H24.8929V14.2157C24.3138 14.0519 23.7029 13.9643 23.0714 13.9643C19.383 13.9643 16.3929 16.9544 16.3929 20.6429C16.3929 24.3313 19.383 27.3214 23.0714 27.3214C26.7599 27.3214 29.75 24.3313 29.75 20.6429C29.75 20.4382 29.7408 20.2357 29.7228 20.0357H29.75V1.21429C29.75 0.543654 29.2063 0 28.5357 0H9.71429Z" fill="#3A4EBA"/>
</g>
</g>
</g>
<defs>
<filter id="filter0_i_927_18861" x="0" y="0" width="29.75" height="34" filterUnits="userSpaceOnUse" color-interpolation-filters="sRGB">
<feFlood flood-opacity="0" result="BackgroundImageFix"/>
<feBlend mode="normal" in="SourceGraphic" in2="BackgroundImageFix" result="shape"/>
<feColorMatrix in="SourceAlpha" type="matrix" values="0 0 0 0 0 0 0 0 0 0 0 0 0 0 0 0 0 0 127 0" result="hardAlpha"/>
<feOffset dy="-1.21429"/>
<feComposite in2="hardAlpha" operator="arithmetic" k2="-1" k3="1"/>
<feColorMatrix type="matrix" values="0 0 0 0 0 0 0 0 0 0 0 0 0 0 0 0 0 0 0.25 0"/>
<feBlend mode="normal" in2="shape" result="effect1_innerShadow_927_18861"/>
</filter>
</defs>
</svg>
