<svg width="34" height="34" viewBox="0 0 34 34" fill="none" xmlns="http://www.w3.org/2000/svg">
<g id="Icon/Sound-Three">
<g id="Group">
<g id="Figure" filter="url(#filter0_i_927_18963)">
<path d="M14.9271 31.823C15.692 32.5826 17 32.0446 17 30.9703V3.02965C17 1.95538 15.692 1.41738 14.9271 2.177L7.28571 9.76508H1.21429C0.543654 9.76508 0 10.3049 0 10.9709V23.0291C0 23.695 0.543654 24.2349 1.21429 24.2349H7.28571L14.9271 31.823Z" fill="#3A4EBA"/>
</g>
<g id="Figure_2" filter="url(#filter1_i_927_18963)">
<path fill-rule="evenodd" clip-rule="evenodd" d="M20.0633 15.3869C19.9596 15.1523 19.8372 14.9261 19.6975 14.7099C19.3289 14.1395 19.3123 13.3797 19.8157 12.9082L20.2612 12.4908C20.7646 12.0193 21.5901 12.0148 22.0122 12.5518C22.421 13.0718 22.7622 13.6375 23.0272 14.2368C23.4572 15.2091 23.6785 16.2512 23.6785 17.3035C23.6785 18.3559 23.4572 19.398 23.0272 20.3702C22.7622 20.9696 22.421 21.5352 22.0122 22.0553C21.5901 22.5922 20.7646 22.5878 20.2612 22.1163L19.8157 21.6989C19.3123 21.2274 19.3289 20.4676 19.6975 19.8971C19.8372 19.681 19.9596 19.4547 20.0633 19.2202C20.332 18.6126 20.4703 17.9613 20.4703 17.3035C20.4703 16.6458 20.332 15.9945 20.0633 15.3869Z" fill="#3A4EBA"/>
</g>
<g id="Figure_3" filter="url(#filter2_i_927_18963)">
<path fill-rule="evenodd" clip-rule="evenodd" d="M25.452 14.3164C25.0408 13.3694 24.4382 12.5089 23.6785 11.784L25.8479 9.71423C26.8925 10.7109 27.7211 11.8941 28.2864 13.1962C28.8518 14.4984 29.1428 15.8941 29.1428 17.3035C29.1428 18.713 28.8518 20.1086 28.2864 21.4108C27.7211 22.713 26.8925 23.8962 25.8479 24.8928L23.6785 22.823C24.4382 22.0982 25.0408 21.2377 25.452 20.2906C25.8631 19.3436 26.0747 18.3286 26.0747 17.3035C26.0747 16.2785 25.8631 15.2634 25.452 14.3164Z" fill="#3A4EBA"/>
</g>
<g id="Figure_4" filter="url(#filter3_i_927_18963)">
<path fill-rule="evenodd" clip-rule="evenodd" d="M30.2553 13.0438C29.7159 11.6932 28.9252 10.4661 27.9285 9.43245L29.9985 7.28577C31.2671 8.60133 32.2734 10.1631 32.96 11.882C33.6465 13.6009 33.9999 15.4431 33.9999 17.3036C33.9999 19.1641 33.6465 21.0064 32.96 22.7253C32.2734 24.4441 31.2671 26.0059 29.9985 27.3215L27.9285 25.1748C28.9252 24.1411 29.7159 22.914 30.2553 21.5635C30.7948 20.2129 31.0724 18.7654 31.0724 17.3036C31.0724 15.8418 30.7948 14.3943 30.2553 13.0438Z" fill="#3A4EBA"/>
</g>
</g>
</g>
<defs>
<filter id="filter0_i_927_18963" x="0" y="1.82141" width="17" height="30.3572" filterUnits="userSpaceOnUse" color-interpolation-filters="sRGB">
<feFlood flood-opacity="0" result="BackgroundImageFix"/>
<feBlend mode="normal" in="SourceGraphic" in2="BackgroundImageFix" result="shape"/>
<feColorMatrix in="SourceAlpha" type="matrix" values="0 0 0 0 0 0 0 0 0 0 0 0 0 0 0 0 0 0 127 0" result="hardAlpha"/>
<feOffset dy="-1.21429"/>
<feComposite in2="hardAlpha" operator="arithmetic" k2="-1" k3="1"/>
<feColorMatrix type="matrix" values="0 0 0 0 0 0 0 0 0 0 0 0 0 0 0 0 0 0 0.25 0"/>
<feBlend mode="normal" in2="shape" result="effect1_innerShadow_927_18963"/>
</filter>
<filter id="filter1_i_927_18963" x="19.4285" y="12.1428" width="4.25" height="10.3214" filterUnits="userSpaceOnUse" color-interpolation-filters="sRGB">
<feFlood flood-opacity="0" result="BackgroundImageFix"/>
<feBlend mode="normal" in="SourceGraphic" in2="BackgroundImageFix" result="shape"/>
<feColorMatrix in="SourceAlpha" type="matrix" values="0 0 0 0 0 0 0 0 0 0 0 0 0 0 0 0 0 0 127 0" result="hardAlpha"/>
<feOffset dy="-1.21429"/>
<feComposite in2="hardAlpha" operator="arithmetic" k2="-1" k3="1"/>
<feColorMatrix type="matrix" values="0 0 0 0 0 0 0 0 0 0 0 0 0 0 0 0 0 0 0.25 0"/>
<feBlend mode="normal" in2="shape" result="effect1_innerShadow_927_18963"/>
</filter>
<filter id="filter2_i_927_18963" x="23.6785" y="9.71423" width="5.46436" height="15.1786" filterUnits="userSpaceOnUse" color-interpolation-filters="sRGB">
<feFlood flood-opacity="0" result="BackgroundImageFix"/>
<feBlend mode="normal" in="SourceGraphic" in2="BackgroundImageFix" result="shape"/>
<feColorMatrix in="SourceAlpha" type="matrix" values="0 0 0 0 0 0 0 0 0 0 0 0 0 0 0 0 0 0 127 0" result="hardAlpha"/>
<feOffset dy="-1.21429"/>
<feComposite in2="hardAlpha" operator="arithmetic" k2="-1" k3="1"/>
<feColorMatrix type="matrix" values="0 0 0 0 0 0 0 0 0 0 0 0 0 0 0 0 0 0 0.25 0"/>
<feBlend mode="normal" in2="shape" result="effect1_innerShadow_927_18963"/>
</filter>
<filter id="filter3_i_927_18963" x="27.9285" y="7.28577" width="6.07153" height="20.0358" filterUnits="userSpaceOnUse" color-interpolation-filters="sRGB">
<feFlood flood-opacity="0" result="BackgroundImageFix"/>
<feBlend mode="normal" in="SourceGraphic" in2="BackgroundImageFix" result="shape"/>
<feColorMatrix in="SourceAlpha" type="matrix" values="0 0 0 0 0 0 0 0 0 0 0 0 0 0 0 0 0 0 127 0" result="hardAlpha"/>
<feOffset dy="-1.21429"/>
<feComposite in2="hardAlpha" operator="arithmetic" k2="-1" k3="1"/>
<feColorMatrix type="matrix" values="0 0 0 0 0 0 0 0 0 0 0 0 0 0 0 0 0 0 0.25 0"/>
<feBlend mode="normal" in2="shape" result="effect1_innerShadow_927_18963"/>
</filter>
</defs>
</svg>
